<?xml version="1.0" encoding="utf-8"?>
<svg version="1.1" xmlns="http://www.w3.org/2000/svg" xmlns:xlink="http://www.w3.org/1999/xlink" x="0px" y="0px"
	 viewBox="0 0 685.2 860.1" style="enable-background:new 0 0 685.2 860.1;" xml:space="preserve">
<style type="text/css">
	.st0{fill:none;}
	.st1{fill:#3B5A9B;}
</style>
<g id="na_prozrachnom">
	<g>
		<path class="st0" d="M685.2,485.1c0,0,0-288.2,0-362.4C425.5,98,342.6,0,342.6,0S259.7,98,0,122.8C0,197,0,485.1,0,485.1
			s-3.7,194.2,108.8,263.4c116.3,59.4,233.8,111.5,233.8,111.5s117.5-52.2,233.8-111.5C688.9,679.3,685.2,485.1,685.2,485.1z"/>
		<path class="st1" d="M685.2,485.1c0,0,0-288.2,0-362.4C425.5,98,342.6,0,342.6,0S259.7,98,0,122.8C0,197,0,485.1,0,485.1
			s-3.7,194.2,108.8,263.4c116.3,59.4,233.8,111.5,233.8,111.5s117.5-52.2,233.8-111.5C688.9,679.3,685.2,485.1,685.2,485.1z
			 M567.8,736.9c-112,57.2-225.2,107.4-225.2,107.4s-113.2-50.2-225.2-107.4C9,670.2,12.6,483.1,12.6,483.1s0-277.6,0-349.1
			c250.2-23.8,330-118.3,330-118.3s79.8,94.4,330,118.3c0,71.5,0,349.1,0,349.1S676.2,670.2,567.8,736.9z"/>
		<path class="st1" d="M646,478.8c0,0,0-255.2,0-321C416,136,342.6,49.2,342.6,49.2S269.2,136,39.2,157.9c0,65.7,0,321,0,321
			s-3.3,172,96.4,233.3c103,52.6,207,98.8,207,98.8s104.1-46.2,207-98.8C649.3,650.8,646,478.8,646,478.8z M237,214.9l49.8,49.9
			v98.9H237V214.9z M223.7,219.7v62.7c-26.2,21.2-46.6,49.2-58.5,81.3h-54.6C128,302.1,169.2,250.6,223.7,219.7z M107.2,377h253.2
			h63.9c29.5,0,61.3-19.7,61.3-60.8c0-46.7-27.8-60.8-61.3-60.8h-63.9h-61.9l-50.2-49.8h193.8c58.5,0,97.8,49.5,97.8,110.6
			c0,75.2-54.3,110.6-97.8,110.6H101.5C101.7,409.7,103.6,393.1,107.2,377z M223.8,639.4c-69.4-39.4-117.4-112.2-122-196.5h52
			c3.8,54.1,30.3,101.9,70,133.9V639.4z M286.7,664.1c-17.4-4.1-34.1-10.1-49.8-17.8V442.9h49.8V664.1z M342.6,670.6
			c-13.5,0-26.7-1.1-39.6-3.3v-52.9c12.8,2.7,26,4.2,39.6,4.2c104.5,0,189.2-84.7,189.2-189.2c0-11.3-1-22.3-2.9-33
			c15.8-19.2,26.4-45.8,26.4-80.3c0-0.1,0-0.3,0-0.4c18.1,33.9,28.4,72.6,28.4,113.6C583.8,562.7,475.8,670.6,342.6,670.6z"/>
	</g>
</g>
</svg>
